/* XPM */
static char *b78f3112e4dc45cbb29168c74fc6701bNLHVFyXlSEbIBvlc[] = {
/* columns rows colors chars-per-pixel */
"100 100 2 1 ",
"  c #9BD4C3",
". c #B1E0BE",
/* pixels */
"                                                                         .........................  ",
"                                                                         .........................  ",
"                                                                         .........................  ",
"                                                                         .........................  ",
"                                                                         .........................  ",
"                                                                         .........................  ",
"                                                                                                    ",
"                                                                                                    ",
"                                                                                                    ",
"                                                                                                    ",
"                                                                                                    ",
"                                                                                                    ",
"                                                                                                    ",
"                                    ...................                                             ",
"                                    ...................                                             ",
"                                    ...................                                             ",
"                                    ...................                                             ",
"                                    ...................                                             ",
"                                    ...................                                             ",
"                                                                                                    ",
"                                                                                                    ",
"                                                                                                    ",
"                                                                                                    ",
"                                                                                                    ",
"                                                                                                    ",
"                                                                                                    ",
"                                                                                                    ",
"                                                                                                    ",
"                                                                                                    ",
"                                                                                                    ",
"                                                                                                    ",
"...........                                                                           ..............",
"...........                                                                           ..............",
"...........                                                                           ..............",
"...........                                                                           ..............",
"...........                                                                           ..............",
"...........                                                                           ..............",
"...........                                                                           ..............",
"                                                                                                    ",
"                                                                                                    ",
"                                                                                                    ",
"                                                                                                    ",
"                                                                                                    ",
"                                                                                                    ",
"                                                                                                    ",
"                                                                                                    ",
"                                                                                                    ",
"                                                                                                    ",
"                                                                                                    ",
"                                                                                                    ",
"                                                .........................                           ",
"                                                .........................                           ",
"                                                .........................                           ",
"                                                .........................                           ",
"                                                .........................                           ",
"                                                .........................                           ",
"                                                                                                    ",
"                                                                                                    ",
"                                                                                                    ",
"                                                                                                    ",
"                                                                                                    ",
"                                                                                                    ",
"                                                                                                    ",
"                 .............                                                                      ",
"                 .............                                                                      ",
"                 .............                                                                      ",
"                 .............                                                                      ",
"                 .............                                                                      ",
"                 .............                                                                      ",
"                                                                                                    ",
"                                                                                                    ",
"                                                                                                    ",
"                                                                                                    ",
"                                                                                                    ",
"                                                                                                    ",
"                                                                         ...................        ",
"                                                                         ...................        ",
"                                                                         ...................        ",
"                                                                         ...................        ",
"                                                                         ...................        ",
"                                                                         ...................        ",
"                                    ...................                                             ",
"                                    ...................                                             ",
"                                    ...................                                             ",
"                                    ...................                                             ",
"                                    ...................                                             ",
"                                    ...................                                             ",
"                                    ...................                                             ",
"                                                                                                    ",
"                                                                                                    ",
"                                                                                                    ",
"                                                                                                    ",
"                                                                                                    ",
"                                                                                                    ",
"                                                                                                    ",
"                                                                                                    ",
"                                                                                                    ",
"                                                                                                    ",
"                                                                                                    ",
"                                                                                                    "
};
